<?xml version="1.0" encoding="UTF-8"?>
<svg xmlns="http://www.w3.org/2000/svg" xmlns:xlink="http://www.w3.org/1999/xlink" width="65.294pt" height="100.01pt" viewBox="0 0 65.294 100.01" version="1.1">
<defs>
<clipPath id="clip1">
  <path d="M 0 0 L 65.292969 0 L 65.292969 100.011719 L 0 100.011719 Z M 0 0 "/>
</clipPath>
<clipPath id="clip2">
  <path d="M 0 0 L 44 0 L 44 100.011719 L 0 100.011719 Z M 0 0 "/>
</clipPath>
<clipPath id="clip3">
  <path d="M 21 0 L 65.292969 0 L 65.292969 100.011719 L 21 100.011719 Z M 21 0 "/>
</clipPath>
</defs>
<g id="surface1">
<g clip-path="url(#clip1)" clip-rule="nonzero">
<path style="fill:none;stroke-width:0.79701;stroke-linecap:butt;stroke-linejoin:miter;stroke:rgb(50%,50%,50%);stroke-opacity:1;stroke-miterlimit:10;" d="M 56.692188 0.0005625 L 56.692188 -36.851 C 56.692188 -51.022875 28.348437 -48.190844 28.348437 -62.362719 L 28.348437 -65.198656 C 28.348437 -70.866625 23.813281 -73.815844 18.367969 -76.218187 M 9.977344 -79.686937 C 4.535938 -82.093187 0.00078125 -85.0385 0.00078125 -90.710375 L 0.00078125 -99.214281 " transform="matrix(1,0,0,-1,4.3,0.399)"/>
</g>
<g clip-path="url(#clip2)" clip-rule="nonzero">
<path style="fill:none;stroke-width:0.79701;stroke-linecap:butt;stroke-linejoin:miter;stroke:rgb(50%,50%,50%);stroke-opacity:1;stroke-miterlimit:10;" d="M 0.00078125 0.0005625 L 0.00078125 -65.198656 C 0.00078125 -79.370531 28.348437 -76.534594 28.348437 -90.710375 L 28.348437 -99.214281 " transform="matrix(1,0,0,-1,4.3,0.399)"/>
</g>
<g clip-path="url(#clip3)" clip-rule="nonzero">
<path style="fill:none;stroke-width:0.79701;stroke-linecap:butt;stroke-linejoin:miter;stroke:rgb(50%,50%,50%);stroke-opacity:1;stroke-miterlimit:10;" d="M 28.348437 0.0005625 L 28.348437 -36.851 C 28.348437 -42.518969 32.883594 -45.468187 38.325 -47.870531 M 46.715625 -51.343187 C 52.157031 -53.745531 56.692188 -56.69475 56.692188 -62.362719 L 56.692188 -99.214281 " transform="matrix(1,0,0,-1,4.3,0.399)"/>
</g>
</g>
</svg>
